<svg width="12" height="13" viewBox="0 0 12 13" fill="none" xmlns="http://www.w3.org/2000/svg">
<path d="M11.4422 5.15443V8.49257C11.4389 9.68126 10.9652 10.8203 10.1246 11.6609C9.2841 12.5014 8.14504 12.9751 6.95635 12.9784H5.33238C4.14369 12.9751 3.00463 12.5014 2.1641 11.6609C1.32356 10.8203 0.84988 9.68126 0.846558 8.49257V5.15443C0.846128 4.10124 1.21767 3.08174 1.89563 2.27578H9.32305C7.59511 2.27657 5.90932 1.74225 4.49732 0.746231C4.77394 0.693257 5.05494 0.666563 5.33658 0.666504H6.96054C8.14943 0.670379 9.28848 1.14452 10.129 1.98539C10.9694 2.82626 11.443 3.96554 11.4464 5.15443H11.4422Z" fill="#F8F8F9"/>
</svg>
