<svg width="12" height="5" viewBox="0 0 12 5" fill="none" xmlns="http://www.w3.org/2000/svg">
<path d="M11.4694 2.50293C11.4667 3.12919 11.2162 3.72891 10.7728 4.17116C10.3294 4.6134 9.72899 4.86224 9.10273 4.86334H3.20905C2.59686 4.86214 2.00892 4.62398 1.56848 4.1988C1.12804 3.77361 0.869311 3.19442 0.846538 2.58266C0.844448 2.55613 0.844448 2.52947 0.846538 2.50293C0.844453 2.4771 0.844453 2.45114 0.846538 2.4253C0.868223 1.81241 1.12634 1.23172 1.56679 0.804971C2.00723 0.378221 2.59578 0.138558 3.20905 0.13623H9.10273C9.71599 0.138558 10.3045 0.378221 10.745 0.804971C11.1854 1.23172 11.4435 1.81241 11.4652 2.4253C11.4687 2.45102 11.4701 2.47699 11.4694 2.50293Z" fill="#538A4B"/>
</svg>
