<svg width="12" height="6" viewBox="0 0 12 6" fill="none" xmlns="http://www.w3.org/2000/svg">
<path d="M11.5801 2.93959C11.5822 2.96682 11.5822 2.99418 11.5801 3.02142C11.5801 3.05289 11.5801 3.07807 11.5801 3.10324C11.5762 3.17355 11.5685 3.24359 11.557 3.31306C11.4669 3.87926 11.1782 4.39492 10.7427 4.76779C10.3071 5.14067 9.75316 5.34642 9.17982 5.34825H3.18753C2.57876 5.34546 1.9936 5.11245 1.54954 4.69602C1.10547 4.27959 0.8354 3.71058 0.79355 3.10324C0.782358 2.99583 0.782358 2.88754 0.79355 2.78013C0.838934 2.17542 1.11055 1.61002 1.55425 1.19666C1.99794 0.783293 2.58112 0.552326 3.18753 0.549805H9.17353C9.74753 0.550441 10.3024 0.756039 10.7383 1.12956C11.1741 1.50308 11.4622 2.01997 11.5507 2.5871C11.5668 2.67998 11.5752 2.77401 11.5759 2.86825C11.5789 2.89191 11.5803 2.91574 11.5801 2.93959Z" fill="#538A4B"/>
</svg>
