<svg width="322" height="374" viewBox="0 0 322 374" fill="none" xmlns="http://www.w3.org/2000/svg">
<path d="M239.829 62.2243H164.646C162.027 62.2243 159.904 60.0752 159.904 57.4239V13.9283C159.904 11.2769 162.027 9.12781 164.646 9.12781H239.83C242.449 9.12781 244.572 11.2769 244.572 13.9283V57.4239C244.571 60.0752 242.448 62.2243 239.829 62.2243Z" fill="#306348"/>
<path d="M174.214 22.5432H180.431V20.0212C180.431 19.1809 179.759 18.5003 178.929 18.5003H170.228V24.5886C170.228 24.9534 170.037 25.2482 169.677 25.2482C169.316 25.2482 169.175 24.9534 169.175 24.5886V18.5003H167.669C166.839 18.5003 166.166 19.1809 166.166 20.0212V27.3961H174.326C174.58 27.3961 174.811 27.5815 174.836 27.8367C174.865 28.1304 174.638 28.3786 174.354 28.3786H166.166V31.4204C166.166 32.2607 166.839 32.9413 167.669 32.9413H178.929C179.759 32.9413 180.431 32.2607 180.431 31.4204V23.5455H174.186C173.896 23.5455 173.664 23.2926 173.694 22.9931C173.719 22.732 173.955 22.5432 174.214 22.5432Z" fill="#EDCF85"/>
<path d="M238.213 47.4383H220.965V56.2491H238.213V47.4383Z" fill="#EDECEB"/>
<path d="M182.261 38.314H166.165V42.4257H182.261V38.314Z" fill="#EDECEB"/>
<path d="M200.921 38.314H184.525V42.4257H200.921V38.314Z" fill="#EDECEB"/>
<path d="M238.117 38.314H221.37V42.4257H238.117V38.314Z" fill="#EDECEB"/>
<path d="M218.98 38.314H203.487V42.4257H218.98V38.314Z" fill="#EDECEB"/>
<path d="M215.901 47.4383H166.262V52.7458H215.901V47.4383Z" fill="#EDCF85"/>
<path d="M238.213 14.1229H216.858V20.3115H238.213V14.1229Z" fill="#EDECEB"/>
<path d="M3.01604 56.195C5.30584 42.4602 26.1995 36.2601 25.7908 45.2235L121.57 45.7911C128.203 45.8307 133.583 51.8724 133.588 59.2928L133.788 314.3C133.793 321.988 128.32 328.273 121.559 328.331L23.7854 329.181C23.1787 330.471 22.0424 331.645 20.2534 332.625C9.04042 332.866 3.66188 327.26 1.69788 320.924C1.0578 319.223 0.710127 317.342 0.726244 315.361C1.11536 312.041 2.30688 59.4163 3.01604 56.195Z" fill="#B6D352"/>
<path d="M21.2964 332.665L133.527 331.933C140.53 331.888 146.196 325.433 146.183 317.523L145.762 55.2708C145.749 47.6441 140.175 41.4475 133.306 41.4253L23.2558 41.0629C16.3335 41.0396 10.6729 47.2269 10.6142 54.8885L8.61909 318.354C8.55923 326.301 14.2359 332.712 21.2964 332.665Z" fill="white"/>
<path d="M19.7468 330.758C20.2131 330.821 20.6897 330.851 21.1651 330.847L133.362 329.988C139.379 329.942 144.298 324.284 144.288 317.38L143.9 55.4153C143.89 48.7571 139.049 43.3226 133.146 43.297L23.1026 42.8122C22.9311 42.811 22.7561 42.8157 22.5857 42.8227C19.817 42.9532 17.2291 44.2294 15.295 46.4157C13.3183 48.6499 12.2189 51.6101 12.1947 54.7557L10.2261 318.488C10.1801 324.738 14.2577 330.013 19.7468 330.758Z" fill="#284D3A"/>
<path d="M16.0537 56.0808L14.161 318.894L140.556 318.129L140.232 56.0808H16.0537Z" fill="white"/>
<path d="M52.6502 56.0819L82.6202 97.2897C82.6191 97.3084 82.6191 97.3247 82.6191 97.3422C82.3244 105.434 99.4167 105.45 99.9371 97.3596C99.9394 97.341 99.9405 97.3247 99.9417 97.3072L70.3827 56.0819H52.6502Z" fill="#39805B"/>
<path d="M70.385 56.0819L99.944 97.3072C99.9428 97.3258 99.9417 97.3421 99.9428 97.3596C99.5652 105.45 116.652 105.466 117.256 97.3771C117.26 97.3585 117.261 97.3421 117.262 97.3247L88.1139 56.0819H70.385Z" fill="#306348"/>
<path d="M34.9121 56.0819L65.2931 97.2722L65.2908 97.3247C65.2896 97.3561 65.2885 97.3864 65.2862 97.4179C65.0214 104.95 82.1621 105.865 82.6168 97.3433C82.6191 97.3247 82.6203 97.3084 82.6214 97.2909L52.6514 56.0831L34.9121 56.0819Z" fill="#306348"/>
<path d="M15.9421 56.0807L47.4156 97.2524L47.4144 97.3049C47.2141 107.802 64.7819 106.562 65.2861 97.4156C65.2884 97.3841 65.2896 97.3538 65.2907 97.3224L65.293 97.2699L34.9121 56.0796L15.9421 56.0807Z" fill="#39805B"/>
<path d="M141.271 56.0831H123.558L151.878 97.3608C151.877 97.3794 151.875 97.3958 151.876 97.4132C151.255 105.5 168.922 105.517 169.78 97.4319C169.783 97.4133 169.784 97.3969 169.787 97.3794L141.271 56.0831Z" fill="#39805B"/>
<path d="M88.1128 56.0819L117.261 97.3247C117.26 97.3433 117.258 97.3596 117.26 97.3771C116.8 105.466 133.88 105.483 134.566 97.3946C134.569 97.3759 134.571 97.3596 134.572 97.3421L105.839 56.0819H88.1128Z" fill="#39805B"/>
<path d="M105.838 56.0831L134.571 97.3433C134.569 97.362 134.568 97.3783 134.568 97.3958C134.026 105.484 151.102 105.5 151.87 97.4133C151.874 97.3946 151.875 97.3783 151.876 97.3608L123.556 56.0831H105.838Z" fill="#306348"/>
<path d="M82.6167 97.3422C82.1619 105.865 65.0213 104.949 65.2861 97.4168C64.7818 106.562 47.2141 107.803 47.4144 97.3061L82.6167 97.3422Z" fill="black"/>
<path d="M82.6203 97.3422L99.9394 97.3596C99.4179 105.45 82.3256 105.434 82.6203 97.3422Z" fill="black"/>
<path d="M99.9428 97.3596L117.256 97.3771C116.652 105.468 99.5652 105.45 99.9428 97.3596Z" fill="black"/>
<path d="M117.26 97.3783L134.566 97.3958C133.879 105.484 116.8 105.468 117.26 97.3783Z" fill="black"/>
<path d="M134.568 97.3958L151.87 97.4133C151.102 105.5 134.027 105.484 134.568 97.3958Z" fill="black"/>
<path d="M169.778 97.4319C168.921 105.517 151.253 105.5 151.874 97.4133L169.778 97.4319Z" fill="black"/>
<path d="M134.255 302.891H23.9846V298.568L134.255 298.585V302.891Z" fill="#91C7AB"/>
<path d="M134.255 260.868L23.9846 260.703V256.381L134.255 256.564V260.868Z" fill="#91C7AB"/>
<path d="M134.255 218.847L23.9846 218.516V214.194L134.255 214.542V218.847Z" fill="#91C7AB"/>
<path d="M134.255 176.826L23.9846 176.329V172.008L134.255 172.52V176.826Z" fill="#91C7AB"/>
<path d="M124.403 126.748L34.0232 126.211C30.7698 126.192 28.122 123.445 28.122 120.087C28.122 116.729 30.7698 114.015 34.0232 114.037L124.403 114.639C127.62 114.66 130.236 117.393 130.236 120.729C130.236 124.066 127.62 126.766 124.403 126.748ZM34.0232 114.442C30.9863 114.422 28.5134 116.955 28.5134 120.089C28.5134 123.224 30.9851 125.788 34.0232 125.807L124.403 126.345C127.406 126.363 129.849 123.843 129.849 120.728C129.849 117.613 127.406 115.062 124.403 115.042L34.0232 114.442Z" fill="#0093FB"/>
<path d="M124.403 114.84L115 114.777V126.49L124.403 126.546C127.518 126.565 130.043 123.96 130.043 120.728C130.043 117.497 127.518 114.86 124.403 114.84Z" fill="#4F896B"/>
<path d="M120.919 122.37C120.139 122.365 119.404 122.045 118.852 121.469C117.712 120.279 117.712 118.356 118.852 117.18C119.404 116.612 120.138 116.301 120.919 116.306C121.7 116.311 122.434 116.632 122.986 117.208C124.125 118.398 124.125 120.321 122.986 121.496C122.434 122.064 121.7 122.375 120.919 122.37ZM120.919 117.037C120.326 117.034 119.77 117.269 119.351 117.7C118.487 118.592 118.487 120.051 119.351 120.954C119.77 121.391 120.328 121.634 120.919 121.638C121.512 121.642 122.068 121.406 122.487 120.974C123.352 120.082 123.352 118.623 122.487 117.721C122.068 117.284 121.512 117.042 120.919 117.037Z" fill="white"/>
<path d="M124.703 123.823L122.487 121.491L122.986 120.977L125.202 123.31L124.703 123.823Z" fill="white"/>
<path d="M125.692 124.339C125.445 124.594 125.043 124.591 124.795 124.333L122.94 122.396L123.838 121.47L125.693 123.407C125.94 123.666 125.94 124.082 125.692 124.339Z" fill="white"/>
<path d="M59.0498 163.462C59.0498 166.232 56.7966 168.475 54.0259 168.462L33.0981 168.361C30.346 168.348 28.122 166.114 28.122 163.362V141.39C28.122 138.617 30.3787 136.374 33.1516 136.39L54.0794 136.514C56.8292 136.53 59.0498 138.764 59.0498 141.514V163.462Z" fill="#4F896B"/>
<path d="M95.0465 163.633C95.0465 166.404 92.7934 168.646 90.0227 168.633L69.1744 168.534C66.4223 168.521 64.1982 166.286 64.1982 163.534V141.603C64.1982 138.83 66.4549 136.587 69.2279 136.603L90.0762 136.727C92.826 136.743 95.0465 138.977 95.0465 141.727V163.633Z" fill="#4F896B"/>
<path d="M130.149 163.801C130.149 166.572 127.896 168.814 125.125 168.801L104.354 168.702C101.602 168.689 99.3775 166.454 99.3775 163.702V141.812C99.3775 139.039 101.634 136.795 104.407 136.812L125.178 136.935C127.928 136.951 130.149 139.185 130.149 141.934V163.801Z" fill="#4F896B"/>
<path d="M59.0498 206.351C59.0498 209.119 56.8014 211.36 54.0336 211.351L33.1058 211.283C30.3507 211.274 28.122 209.038 28.122 206.283V184.311C28.122 181.541 30.3739 179.299 33.1439 179.311L54.0717 179.403C56.8245 179.415 59.0498 181.65 59.0498 184.403V206.351Z" fill="#4F896B"/>
<path d="M95.0465 206.469C95.0465 209.236 92.798 211.478 90.0303 211.469L69.182 211.401C66.4269 211.392 64.1982 209.156 64.1982 206.401V184.47C64.1982 181.7 66.4502 179.458 69.2201 179.47L90.0684 179.561C92.8213 179.573 95.0465 181.808 95.0465 184.561V206.469Z" fill="#4F896B"/>
<path d="M130.149 206.583C130.149 209.35 127.9 211.592 125.132 211.583L104.361 211.515C101.606 211.506 99.3775 209.27 99.3775 206.515V184.624C99.3775 181.854 101.629 179.612 104.399 179.624L125.171 179.715C127.923 179.727 130.149 181.962 130.149 184.715V206.583Z" fill="#4F896B"/>
<path d="M59.0498 248.493C59.0498 251.258 56.806 253.498 54.0412 253.493L33.1133 253.456C30.3553 253.452 28.122 251.214 28.122 248.456V226.484C28.122 223.717 30.3694 221.476 33.1365 221.484L54.0643 221.544C56.8201 221.552 59.0498 223.789 59.0498 226.544V248.493Z" fill="#4F896B"/>
<path d="M95.0465 248.556C95.0465 251.32 92.8027 253.56 90.0378 253.556L69.1895 253.519C66.4315 253.515 64.1982 251.277 64.1982 248.519V226.589C64.1982 223.821 66.4457 221.581 69.2128 221.589L90.0611 221.649C92.8168 221.657 95.0465 223.894 95.0465 226.649V248.556Z" fill="#4F896B"/>
<path d="M130.149 248.617C130.149 251.382 127.905 253.622 125.14 253.617L104.369 253.581C101.611 253.576 99.3775 251.339 99.3775 248.581V226.69C99.3775 223.923 101.625 221.682 104.392 221.69L125.163 221.751C127.919 221.759 130.149 223.995 130.149 226.751V248.617Z" fill="#4F896B"/>
<path d="M59.0498 290.634C59.0498 293.396 56.8104 295.635 54.0485 295.634L33.1207 295.629C30.3598 295.628 28.122 293.39 28.122 290.629V268.657C28.122 265.893 30.3648 263.653 33.129 263.657L54.0568 263.686C56.8155 263.69 59.0498 265.927 59.0498 268.686V290.634Z" fill="#4F896B"/>
<path d="M95.0465 290.644C95.0465 293.406 92.8071 295.644 90.0452 295.644L69.1969 295.638C66.436 295.638 64.1982 293.399 64.1982 290.638V268.707C64.1982 265.943 66.4411 263.703 69.2052 263.707L90.0535 263.736C92.8122 263.74 95.0465 265.978 95.0465 268.736V290.644Z" fill="#4F896B"/>
<path d="M130.149 290.653C130.149 293.415 127.909 295.654 125.147 295.653L104.376 295.648C101.615 295.647 99.3775 293.409 99.3775 290.648V268.757C99.3775 265.993 101.62 263.753 104.384 263.757L125.155 263.785C127.914 263.789 130.149 266.027 130.149 268.785V290.653Z" fill="#4F896B"/>
<path d="M52.0608 160.571L51.3723 160.358C51.3873 160.307 52.5811 155.013 52.6767 152.999C52.7918 150.574 52.0585 148.426 50.5561 146.787C48.8385 144.913 46.2229 143.83 43.3794 143.813C40.5991 143.798 38.1793 144.754 36.5675 146.507C35.0848 148.117 34.3744 150.329 34.5137 152.9C34.6231 154.933 35.6293 160.048 35.6397 160.099L34.9351 160.244C34.8937 160.032 33.9094 155.024 33.7965 152.936C33.6457 150.156 34.4239 147.755 36.046 145.991C37.7959 144.089 40.4011 143.052 43.3805 143.068C46.4198 143.086 49.2253 144.255 51.0776 146.277C52.7193 148.067 53.5205 150.405 53.3962 153.038C53.2937 155.141 52.1206 160.359 52.0608 160.571Z" fill="#398CDB"/>
<path d="M34.9765 156.793L35.9159 161.97C36.0173 162.529 36.5077 162.912 37.043 162.878L35.7214 155.529C35.2033 155.688 34.8741 156.23 34.9765 156.793Z" fill="#398CDB"/>
<path d="M37.1709 162.862L39.1913 162.481L37.8559 155.12L35.8355 155.501C35.7975 155.508 35.7595 155.518 35.7227 155.529L37.0443 162.878C37.0857 162.875 37.1283 162.871 37.1709 162.862Z" fill="#398CDB"/>
<path d="M39.7266 163.206C39.1096 163.323 38.5155 162.9 38.3992 162.262L37.1928 155.613C37.0765 154.975 37.4829 154.364 38.0999 154.247C38.717 154.131 39.311 154.554 39.4273 155.193L40.6338 161.84C40.75 162.478 40.3437 163.09 39.7266 163.206Z" fill="#C1DFFB"/>
<path d="M52.093 156.956L51.0293 162.093C50.9141 162.648 50.4156 163.014 49.8815 162.96L51.3792 155.667C51.8938 155.844 52.2093 156.397 52.093 156.956Z" fill="#398CDB"/>
<path d="M49.7549 162.94L47.746 162.487L49.2587 155.181L51.2676 155.635C51.3056 155.644 51.3436 155.655 51.3792 155.668L49.8815 162.961C49.8401 162.956 49.7975 162.95 49.7549 162.94Z" fill="#398CDB"/>
<path d="M47.1934 163.192C47.807 163.331 48.4102 162.93 48.5415 162.296L49.908 155.697C50.0392 155.064 49.6478 154.437 49.0342 154.299C48.4206 154.16 47.8173 154.561 47.6861 155.194L46.3196 161.794C46.1895 162.428 46.5798 163.054 47.1934 163.192Z" fill="#C1DFFB"/>
<path d="M83.5261 147.977L82.7997 149.315L69.5571 149.243V160.969L89.6978 161.071V149.494L88.9 148.006L83.5261 147.977Z" fill="#6FAC8C"/>
<path d="M81.9524 149.901L77.3083 149.876V147.944L81.9524 147.969V149.901Z" fill="#CBE4FB"/>
<path d="M75.76 149.868L71.1147 149.842V147.909L75.76 147.934V149.868Z" fill="#CBE4FB"/>
<path d="M89.6978 158.798L69.5571 158.696V151.928L89.6978 152.037V158.798Z" fill="white"/>
<path d="M88.2969 155.411C88.2969 158.049 86.2304 160.177 83.6804 160.164C81.1304 160.152 79.0628 158.001 79.0628 155.363C79.0628 152.724 81.1304 150.596 83.6804 150.609C86.2304 150.623 88.2969 152.772 88.2969 155.411Z" fill="#398CDB"/>
<path d="M87.2607 155.405C87.2607 157.45 85.6582 159.1 83.6815 159.09C81.7049 159.079 80.1024 157.413 80.1024 155.367C80.1024 153.322 81.7049 151.672 83.6815 151.682C85.6582 151.693 87.2607 153.359 87.2607 155.405Z" fill="#CBE4FB"/>
<path d="M85.3935 155.395C85.3935 156.373 84.6267 157.162 83.6816 157.158C82.7364 157.153 81.9697 156.356 81.9697 155.377C81.9697 154.398 82.7364 153.609 83.6816 153.615C84.6267 153.619 85.3935 154.416 85.3935 155.395Z" fill="#398CDB"/>
<path d="M55.5617 246.833C55.404 243.616 48.2963 241.589 48.2963 241.589C48.2963 241.589 41.7907 234.34 39.0692 230.708C34.4378 232.536 33.3338 234.803 34.0234 238.749C36.2809 236.809 40.1318 240.376 44.8115 246.811L55.5617 246.833Z" fill="white"/>
<path d="M34.0234 238.749L35.5671 247.137L36.3119 247.138C36.518 243.364 36.9831 239.086 39.4502 240.454C39.4513 237.088 34.0234 237.076 34.0234 238.749Z" fill="#D6D6D6"/>
<path d="M45.6795 184.319C45.5379 183.902 45.4516 183.464 45.409 183.019L45.0636 183.018C45.0544 183.417 44.9669 183.838 44.9082 184.063C44.6653 184.981 43.9838 185.673 43.1768 185.714C42.3697 185.666 41.6871 184.97 41.4453 184.048C41.3854 183.822 41.2991 183.401 41.2899 183.001L40.9445 183C40.9019 183.445 40.8156 183.882 40.674 184.298C40.3252 185.323 39.7277 186.187 39.022 186.897L39.5734 192.14L46.7812 192.169L47.3327 186.932C46.6258 186.214 46.0283 185.347 45.6795 184.319Z" fill="#D5E9FB"/>
<path d="M51.2112 205.905C49.6754 207.497 37.0487 207.613 35.1377 205.849C35.9999 200.891 37.1281 196.101 39.5711 192.141L46.7824 192.169C48.9662 195.604 50.2142 200.553 51.2112 205.905Z" fill="#D5E9FB"/>
<path d="M43.803 193.411C40.8823 193.399 39.5008 192.135 39.4433 192.08C39.3995 192.039 39.3961 191.968 39.4352 191.923C39.4744 191.877 39.5434 191.874 39.5872 191.915C39.601 191.927 40.9721 193.177 43.803 193.187C43.8041 193.187 43.8053 193.187 43.8076 193.187C46.3288 193.195 46.6765 192.147 46.6788 192.136C46.696 192.078 46.7559 192.045 46.8123 192.063C46.8687 192.08 46.9009 192.142 46.8848 192.2C46.871 192.25 46.5095 193.419 43.8076 193.41C43.8064 193.411 43.8041 193.411 43.803 193.411Z" fill="#398CDB"/>
<path d="M43.5071 195.423C43.4392 195.423 43.3563 195.392 43.2734 195.287C42.7461 194.62 44.062 193.36 44.2128 193.219L44.4488 192.998L44.3913 193.321C44.3084 193.784 44.0044 195.3 43.5704 195.413C43.5508 195.419 43.5301 195.423 43.5071 195.423ZM44.1092 193.635C43.7005 194.077 43.164 194.798 43.4392 195.148C43.461 195.174 43.491 195.207 43.5151 195.199C43.6959 195.152 43.9446 194.406 44.1092 193.635Z" fill="#398CDB"/>
<path d="M44.1714 193.571L44.1772 193.298C44.1783 193.232 44.2209 191.665 44.815 191.142C44.9739 191.002 45.1569 190.946 45.3607 190.974C45.5932 191.007 45.6807 191.131 45.7118 191.229C45.896 191.803 44.6181 193.122 44.3602 193.381L44.1714 193.571ZM45.264 191.19C45.15 191.19 45.0487 191.229 44.9554 191.312C44.5744 191.648 44.45 192.547 44.4109 193.015C44.9508 192.438 45.6059 191.603 45.5081 191.3C45.5011 191.279 45.4816 191.217 45.3331 191.196C45.3089 191.191 45.2859 191.19 45.264 191.19Z" fill="#398CDB"/>
<path d="M46.3287 195.196C46.2884 195.196 46.2504 195.173 46.232 195.134C45.5977 193.787 44.2715 193.412 44.2588 193.409C44.2013 193.392 44.1667 193.332 44.1817 193.272C44.1967 193.213 44.2554 193.178 44.3129 193.193C44.3717 193.209 45.7485 193.599 46.4254 195.036C46.4519 195.09 46.4289 195.158 46.3759 195.184C46.361 195.193 46.3448 195.196 46.3287 195.196Z" fill="#398CDB"/>
<path d="M82.5096 272.229C82.3473 271.751 82.2483 271.249 82.2 270.738H81.8039C81.7924 271.196 81.6934 271.68 81.6255 271.938C81.348 272.992 80.5675 273.787 79.6419 273.838C78.7163 273.786 77.9358 272.989 77.6584 271.934C77.5904 271.675 77.4914 271.193 77.4799 270.734H77.0839C77.0355 271.244 76.9365 271.746 76.7742 272.224C76.3747 273.401 75.6898 274.393 74.8816 275.211L75.5136 281.223L83.7691 281.23L84.3999 275.222C83.5941 274.4 82.9091 273.407 82.5096 272.229Z" fill="#D5E9FB"/>
<path d="M86.0531 285.989C85.4027 284.224 84.6556 282.617 83.7726 281.229L75.5125 281.223C74.595 282.716 73.8409 284.312 73.2054 285.982C75.052 287.932 84.4023 288.26 86.0531 285.989Z" fill="#D5E9FB"/>
<path d="M80.3603 282.663C77.0149 282.661 75.4319 281.214 75.3663 281.153C75.3156 281.105 75.3122 281.024 75.3571 280.973C75.402 280.921 75.4803 280.917 75.5309 280.964C75.5459 280.978 77.1173 282.406 80.3603 282.408C80.3626 282.408 80.3638 282.408 80.3649 282.408C83.2522 282.409 83.6505 281.204 83.654 281.191C83.6735 281.125 83.7426 281.086 83.8071 281.107C83.8716 281.127 83.9084 281.197 83.89 281.265C83.8739 281.322 83.4606 282.664 80.3649 282.663C80.3638 282.663 80.3626 282.663 80.3603 282.663Z" fill="#398CDB"/>
<path d="M80.0219 284.972C79.9436 284.972 79.848 284.938 79.7536 284.818C79.1492 284.053 80.6562 282.604 80.83 282.442L81.1006 282.189L81.035 282.559C80.9405 283.09 80.5929 284.83 80.0944 284.963C80.0714 284.967 80.0472 284.972 80.0219 284.972ZM80.7115 282.918C80.2429 283.426 79.6281 284.256 79.9436 284.656C79.9677 284.686 80.0034 284.724 80.0311 284.714C80.2383 284.661 80.5215 283.804 80.7115 282.918Z" fill="#398CDB"/>
<path d="M80.7827 282.845L80.7896 282.533C80.7908 282.457 80.8391 280.66 81.5195 280.057C81.7014 279.896 81.9109 279.832 82.1446 279.863C82.4117 279.899 82.5107 280.041 82.5464 280.154C82.7571 280.81 81.2939 282.329 80.998 282.627L80.7827 282.845ZM82.033 280.11C81.9029 280.11 81.7866 280.156 81.6795 280.251C81.2432 280.636 81.1005 281.669 81.0556 282.205C81.6738 281.541 82.4232 280.582 82.3127 280.234C82.3047 280.211 82.2816 280.139 82.1124 280.115C82.0848 280.112 82.0595 280.11 82.033 280.11Z" fill="#398CDB"/>
<path d="M83.2533 284.702C83.2072 284.702 83.1635 284.675 83.1428 284.629C82.4164 283.087 80.8979 282.663 80.8818 282.658C80.8162 282.641 80.7759 282.571 80.7931 282.502C80.8104 282.435 80.8772 282.394 80.9439 282.411C81.0107 282.43 82.5879 282.872 83.3638 284.517C83.3937 284.58 83.3684 284.657 83.3074 284.688C83.2901 284.697 83.2717 284.702 83.2533 284.702Z" fill="#398CDB"/>
<path d="M77.0572 187.767C77.0572 187.767 79.2273 188.506 82.4047 187.677C84.4401 190.222 80.8551 191.437 78.6172 190.884C76.378 190.333 77.0572 187.767 77.0572 187.767Z" fill="#CBE4FB"/>
<path d="M82.4047 187.678C82.2297 188.37 81.8774 188.979 81.2258 189.366C79.7028 190.274 77.7365 189.301 77.0572 187.767C75.8519 187.925 74.7951 188.165 74.0387 188.447V206.011L86.0184 206.051V188.496C84.9466 188.072 83.6987 187.811 82.4047 187.678Z" fill="white"/>
<path d="M74.0387 188.447L68.8766 192.561L72.2716 197.165L77.3244 193.287L74.0387 188.447Z" fill="white"/>
<path d="M86.0563 188.496L91.2173 192.649L87.8269 197.224L82.773 193.31L86.0563 188.496Z" fill="white"/>
<path d="M103.309 201.193L103.071 201.191V202.237C103.071 202.237 115.967 203.186 121.042 202.3C126.117 201.414 126.464 199.686 126.464 199.686V198.611L126.29 198.61L103.309 201.193Z" fill="white"/>
<path d="M126.261 199.119C124.931 200.899 120.902 201.432 115.858 201.499C113.782 201.531 111.533 201.48 109.23 201.405C107.271 201.337 105.271 201.257 103.308 201.193C103.113 199.7 103.626 196.924 104.028 195.394C104.159 194.9 104.277 194.533 104.357 194.385L104.431 194.357C105.104 195.3 106.752 195.872 107.729 195.855C109.325 195.822 111.123 194.694 110.609 193.332C110.524 193.144 110.459 192.977 110.414 192.826C110.005 191.47 111.127 191.465 112.809 192.524C115.791 194.447 118.44 195.139 120.579 195.49C121.022 195.562 121.441 195.621 121.84 195.672C124.843 196.062 126.53 196.079 126.261 199.119Z" fill="#D5E9FB"/>
<path d="M126.092 199.118C124.762 200.898 120.733 201.43 115.689 201.498C115.543 200.749 115.416 198.775 118.011 198.294C119.982 197.931 121.1 196.624 121.67 195.668C124.674 196.061 126.361 196.079 126.092 199.118Z" fill="white"/>
<path d="M109.062 201.404C107.102 201.336 105.103 201.256 103.14 201.191C102.945 199.699 103.458 196.922 103.86 195.393C105.532 195.997 108.501 197.588 109.062 201.404Z" fill="white"/>
<path d="M120.579 195.488C120.196 196.101 119.607 196.121 119.041 196.118C113.942 195.757 111.356 193.7 110.414 192.824C110.005 191.468 111.127 191.462 112.809 192.522C115.791 194.445 118.441 195.137 120.579 195.488Z" fill="white"/>
<path d="M114.521 201.694C111.905 201.684 109.288 201.535 107.148 201.412C105.267 201.305 103.781 201.219 103.174 201.293L103.076 201.305L103.052 201.102L103.15 201.09C103.774 201.014 105.267 201.099 107.159 201.208C113.147 201.55 124.287 202.188 126.202 198.561L126.249 198.471L126.422 198.57L126.375 198.66C125.056 201.16 119.793 201.712 114.521 201.694Z" fill="#D5E9FB"/>
<path d="M118.286 163.346L111.805 163.313V142.893L118.286 142.93V163.346Z" fill="white"/>
<path d="M120.502 152.843C120.502 156.121 117.937 158.767 114.772 158.751C111.606 158.734 109.038 156.062 109.038 152.781C109.038 149.501 111.606 146.856 114.772 146.874C117.936 146.891 120.502 149.564 120.502 152.843Z" fill="#CBE4FB"/>
<path d="M119.385 152.837C119.385 155.477 117.319 157.606 114.771 157.593C112.222 157.581 110.155 155.429 110.155 152.788C110.155 150.147 112.222 148.018 114.771 148.032C117.319 148.046 119.385 150.198 119.385 152.837Z" fill="white"/>
<path d="M110.098 150.158L109.363 149.618L110.237 148.335L110.972 148.874L110.098 150.158Z" fill="#CBE4FB"/>
<path d="M109.423 152.758L108.533 152.876L108.737 154.438L109.626 154.32L109.423 152.758Z" fill="#CBE4FB"/>
<path d="M119.405 150.177L120.146 149.657L119.29 148.351L118.549 148.87L119.405 150.177Z" fill="#CBE4FB"/>
<path d="M119.894 154.45L120.782 154.578L120.984 153.019L120.095 152.891L119.894 154.45Z" fill="#CBE4FB"/>
<path d="M114.783 153.069L112.531 151.854C112.425 151.797 112.384 151.663 112.439 151.553C112.493 151.443 112.623 151.401 112.729 151.459L114.761 152.554L117.623 150.67C117.723 150.604 117.857 150.635 117.92 150.738C117.985 150.842 117.955 150.981 117.855 151.046L114.783 153.069Z" fill="#CBE4FB"/>
<path d="M70.5089 242.502C71.5818 242.843 73.1233 243.116 74.8824 243.312C77.7755 243.635 81.2648 243.751 84.2546 243.629C87.2086 243.51 89.6757 243.158 90.6036 242.545C90.6036 242.545 92.5756 230.44 80.9563 230.141C80.8262 230.138 80.6927 230.135 80.5603 230.135C68.4919 230.104 70.5089 242.502 70.5089 242.502Z" fill="white"/>
<path d="M74.8825 243.311C77.7755 243.634 81.2649 243.75 84.2546 243.628C85.8951 232.632 81.2073 230.26 80.9564 230.14C80.9495 230.137 80.946 230.135 80.946 230.135L80.5603 230.134C74.4381 233.659 74.7363 241.556 74.8825 243.311Z" fill="#CBE4FB"/>
<path d="M89.3488 243.005C89.3488 243.005 86.062 248.654 70.8083 247.346C64.2785 246.785 70.5089 242.502 70.5089 242.502C74.6211 243.526 82.537 244.011 89.3488 243.005Z" fill="white"/>
<path d="M111.109 233.528L118.137 233.546C122.135 233.555 125.475 236.889 125.45 241.032C125.441 242.686 124.931 244.151 123.702 244.918L105.173 244.879C104.002 244.314 103.551 242.348 103.863 239.996C104.357 236.268 107.475 233.52 111.109 233.528Z" fill="white"/>
<path d="M112.173 233.724L112.179 233.661C112.293 232.259 113.464 231.163 114.843 231.167C116.222 231.17 117.392 232.272 117.507 233.675L117.513 233.739L118.42 233.741L118.408 233.599C118.254 231.716 116.689 230.237 114.844 230.232C112.999 230.227 111.433 231.698 111.279 233.582L111.267 233.724H112.173Z" fill="white"/>
<path d="M113.99 244.898L112.253 244.895V237.852L113.99 237.856V244.898Z" fill="#D5E9FB"/>
<path d="M117.431 244.905L115.694 244.902V237.86L117.431 237.863V244.905Z" fill="#D5E9FB"/>
<path d="M53.4745 286.409C50.7633 288.774 36.685 288.767 34.3802 286.398C33.9543 281.848 34.4136 277.823 35.6581 274.263C41.1817 273.095 46.6949 273.15 52.1978 274.279C53.4779 277.522 54.0386 282.785 53.4745 286.409Z" fill="white"/>
<path d="M35.6581 274.263C35.6581 274.263 36.7495 281.083 44.4155 281.041C52.0769 280.998 52.1978 274.279 52.1978 274.279C52.1978 274.279 44.336 272.282 35.6581 274.263Z" fill="#99D7B7"/>
<path d="M43.9251 283.457C43.5141 283.457 43.1768 283.108 43.1768 282.684V279.884C43.1768 279.458 43.5129 279.111 43.9251 279.112C44.3361 279.112 44.6722 279.46 44.6722 279.886V282.686C44.6722 283.11 44.3361 283.457 43.9251 283.457Z" fill="#CBE4FB"/>
<path d="M112.729 271.899C112.729 271.899 114.705 272.567 117.596 271.804C119.448 274.118 116.185 275.235 114.149 274.737C112.112 274.239 112.729 271.899 112.729 271.899Z" fill="#398CDB"/>
<path d="M117.596 271.804C117.436 272.435 117.116 272.99 116.523 273.345C115.137 274.176 113.348 273.295 112.728 271.9C111.631 272.047 110.67 272.27 109.981 272.528V288.532L120.883 288.538V272.54C119.91 272.156 118.773 271.922 117.596 271.804Z" fill="#D5E9FB"/>
<path d="M109.983 272.527L105.284 276.291L108.374 280.477L112.972 276.929L109.983 272.527Z" fill="#D5E9FB"/>
<path d="M120.92 272.54L125.617 276.31L122.532 280.488L117.932 276.934L120.92 272.54Z" fill="#D5E9FB"/>
<path d="M119.202 277.177H116.01V280.484H119.202V277.177Z" fill="white"/>
<path d="M71.1781 33.8837C74.0876 33.8837 76.4461 31.496 76.4461 28.5507C76.4461 25.6053 74.0876 23.2176 71.1781 23.2176C68.2687 23.2176 65.9101 25.6053 65.9101 28.5507C65.9101 31.496 68.2687 33.8837 71.1781 33.8837Z" fill="white"/>
<path d="M89.8246 11.8358L92.0615 9.25903C79.52 -3.48512 59.9721 -3.01544 48.0454 10.3091L50.4031 12.7728C61.0957 0.867821 78.584 0.44826 89.8246 11.8358Z" fill="white"/>
<path d="M85.1806 17.1864L87.4175 14.6096C77.5767 4.68464 62.3068 5.04942 52.9415 15.4242L55.2992 17.888C63.4304 8.93268 76.6408 8.61801 85.1806 17.1864Z" fill="white"/>
<path d="M80.685 22.3668L82.9218 19.79C75.6944 12.5922 64.5678 12.8544 57.6823 20.3762L60.04 22.8399C65.6914 16.7365 74.7596 16.5256 80.685 22.3668Z" fill="white"/>
<path d="M245.142 131.803H172.947C167.998 131.803 163.986 127.742 163.986 122.731C163.986 117.721 167.998 113.66 172.947 113.66H245.142C250.091 113.66 254.103 117.721 254.103 122.731C254.103 127.742 250.091 131.803 245.142 131.803Z" fill="white"/>
<path d="M178.376 118.885L179.319 121.824H182.37L179.901 123.639L180.844 126.576L178.376 124.762L175.908 126.576L176.851 123.639L174.382 121.824H177.433L178.376 118.885Z" fill="#FFF37C"/>
<path d="M193.376 118.885L194.318 121.824H197.37L194.902 123.639L195.845 126.576L193.376 124.762L190.907 126.576L191.85 123.639L189.382 121.824H192.432L193.376 118.885Z" fill="#FFF37C"/>
<path d="M208.376 118.885L209.319 121.824H212.369L209.901 123.639L210.844 126.576L208.376 124.762L205.908 126.576L206.85 123.639L204.382 121.824H207.433L208.376 118.885Z" fill="#FFF37C"/>
<path d="M223.376 118.885L224.319 121.824H227.37L224.902 123.639L225.845 126.576L223.376 124.762L220.907 126.576L221.85 123.639L219.382 121.824H222.434L223.376 118.885Z" fill="#FFF37C"/>
<path d="M238.376 118.885L239.319 121.824H242.37L239.901 123.639L240.844 126.576L238.376 124.762L235.908 126.576L236.851 123.639L234.382 121.824H237.433L238.376 118.885Z" fill="#FFF37C"/>
<path d="M281.664 124.717C282.733 120.132 279.929 115.538 275.4 114.455C270.871 113.373 266.333 116.212 265.264 120.796C264.194 125.381 266.999 129.975 271.527 131.058C276.056 132.14 280.594 129.301 281.664 124.717Z" fill="#193024"/>
<path d="M272.943 126.735L269.099 120.47L269.768 119.775L272.98 122.935L282.935 114.202L283.564 115.034L272.943 126.735Z" fill="white"/>
<path d="M230.68 309.964L225.337 369.986H280.547L274.61 309.964H230.68Z" fill="url(#paint0_linear_590_417)"/>
<path d="M274.61 309.964L269.861 369.986H280.547L274.61 309.964Z" fill="url(#paint1_linear_590_417)"/>
<path d="M280.533 369.848L272.954 361.127L270.762 358.605L269.861 369.986L272.649 369.986L280.547 369.986L280.533 369.848Z" fill="#BEBEBE"/>
<path d="M246.269 310.001H244.72C240.994 311.432 241.159 313.268 241.17 313.356C241.18 313.439 241.475 313.49 241.852 313.479C241.888 313.478 241.925 313.477 241.963 313.474C242.395 313.448 242.736 313.352 242.724 313.259C242.721 313.238 242.523 311.339 246.269 310.001Z" fill="#4E242D"/>
<path d="M266.305 310.001H264.756C261.03 311.432 261.194 313.268 261.206 313.356C261.216 313.439 261.511 313.49 261.888 313.479C261.924 313.478 261.961 313.477 261.999 313.474C262.431 313.448 262.772 313.352 262.76 313.259C262.756 313.238 262.559 311.339 266.305 310.001Z" fill="#4E242D"/>
<path d="M274.61 309.964L270.762 358.605L269.861 369.986L272.649 369.986L272.954 361.127L274.69 310.772L274.61 309.964Z" fill="#BFC78C"/>
<path d="M242.255 316.313C241.818 316.313 241.438 316.008 241.374 315.584C241.301 315.093 239.633 303.507 244.762 297.599C246.577 295.51 249.015 294.383 252.009 294.25C254.916 294.115 257.309 295.013 259.121 296.898C264.511 302.507 262.804 315.047 262.728 315.578C262.663 316.042 262.214 316.367 261.727 316.305C261.24 316.242 260.898 315.815 260.963 315.35C260.98 315.228 262.635 303.064 257.806 298.043C256.347 296.526 254.478 295.836 252.092 295.946C249.585 296.057 247.636 296.952 246.133 298.682C241.501 304.016 243.12 315.232 243.137 315.344C243.207 315.807 242.868 316.238 242.381 316.304C242.339 316.311 242.297 316.313 242.255 316.313Z" fill="#2F444D"/>
<path d="M269.589 304.215L263.973 369.915H322.002L315.763 304.215H269.589Z" fill="#EDBD5A"/>
<path d="M315.763 304.215L310.771 369.915H322.002L315.763 304.215Z" fill="#E29A62"/>
<path d="M321.989 369.766L314.022 360.219L311.718 357.457L310.77 369.915H313.7H322.002L321.989 369.766Z" fill="#DD6819"/>
<path d="M285.974 304.254H284.346C280.429 305.821 280.603 307.83 280.614 307.926C280.626 308.017 280.936 308.073 281.332 308.062C281.37 308.061 281.408 308.06 281.448 308.056C281.901 308.028 282.261 307.922 282.249 307.821C282.244 307.798 282.037 305.72 285.974 304.254Z" fill="#4E242D"/>
<path d="M307.033 304.254H305.405C301.488 305.821 301.662 307.83 301.673 307.926C301.684 308.017 301.995 308.073 302.391 308.062C302.429 308.061 302.467 308.06 302.507 308.056C302.96 308.028 303.32 307.922 303.307 307.821C303.304 307.798 303.095 305.72 307.033 304.254Z" fill="#4E242D"/>
<path d="M315.763 304.215L311.718 357.457L310.77 369.915H313.7L314.022 360.219L315.847 305.098L315.763 304.215Z" fill="#668A60"/>
<path d="M281.755 311.164C281.297 311.164 280.896 310.831 280.829 310.367C280.752 309.831 278.998 297.147 284.389 290.681C286.296 288.394 288.859 287.16 292.007 287.015C295.062 286.868 297.577 287.85 299.482 289.913C305.147 296.053 303.353 309.779 303.274 310.361C303.205 310.87 302.733 311.224 302.221 311.156C301.709 311.088 301.35 310.62 301.418 310.112C301.436 309.978 303.174 296.663 298.1 291.167C296.566 289.506 294.602 288.751 292.093 288.871C289.458 288.992 287.41 289.972 285.831 291.865C280.962 297.704 282.663 309.98 282.681 310.104C282.754 310.612 282.398 311.082 281.887 311.155C281.844 311.161 281.799 311.164 281.755 311.164Z" fill="#F5F2E8"/>
<path d="M229.475 310.703L224.133 370.724H279.342L273.406 310.703H229.475Z" fill="url(#paint2_linear_590_417)"/>
<path d="M273.406 310.703L268.657 370.724H279.342L273.406 310.703Z" fill="url(#paint3_linear_590_417)"/>
<path d="M279.329 370.588L271.75 361.867L269.557 359.344L268.657 370.724L271.444 370.724L279.342 370.724L279.329 370.588Z" fill="#BEBEBE"/>
<path d="M245.064 310.74H243.516C239.789 312.17 239.954 314.006 239.965 314.094C239.975 314.178 240.271 314.229 240.648 314.218C240.684 314.217 240.721 314.215 240.758 314.213C241.19 314.187 241.532 314.091 241.519 313.997C241.517 313.977 241.319 312.079 245.064 310.74Z" fill="#4E242D"/>
<path d="M265.1 310.74H263.552C259.825 312.17 259.99 314.006 260.001 314.094C260.011 314.178 260.307 314.229 260.684 314.218C260.72 314.217 260.757 314.215 260.794 314.213C261.226 314.187 261.568 314.091 261.555 313.997C261.553 313.977 261.355 312.079 265.1 310.74Z" fill="#4E242D"/>
<path d="M273.406 310.703L269.557 359.344L268.657 370.724L271.444 370.724L271.75 361.867L273.487 311.51L273.406 310.703Z" fill="#BFC78C"/>
<path d="M241.051 317.052C240.615 317.052 240.235 316.747 240.171 316.323C240.097 315.832 238.429 304.246 243.559 298.338C245.373 296.248 247.812 295.121 250.806 294.989C253.712 294.854 256.106 295.752 257.918 297.637C263.308 303.246 261.6 315.785 261.525 316.316C261.459 316.781 261.011 317.105 260.523 317.044C260.036 316.981 259.694 316.554 259.76 316.089C259.777 315.967 261.431 303.803 256.603 298.782C255.144 297.265 253.275 296.575 250.888 296.685C248.381 296.795 246.432 297.691 244.93 299.42C240.298 304.755 241.916 315.97 241.933 316.082C242.003 316.546 241.665 316.976 241.178 317.043C241.135 317.049 241.093 317.052 241.051 317.052Z" fill="#2F444D"/>
<path d="M224.26 357.844L233.922 354.549L229.964 342.65L220.301 345.945L224.26 357.844Z" fill="#FBC09A"/>
<path d="M211.43 269.127C210.959 269.289 210.475 269.458 210.013 269.616C202.18 272.294 195.656 275.858 195.299 284.936C194.976 293.152 198.981 300.932 201.907 308.354C206.278 319.446 218.86 346.614 219.957 349.504C221.168 349.323 233.549 345.835 233.352 345.156C230.638 335.852 226.196 327.077 223.136 317.878C222.538 316.08 221.939 314.282 221.342 312.484C219.851 308.001 218.36 303.52 216.867 299.037C216.415 297.679 215.964 296.32 215.512 294.963C214.894 293.106 214.796 292.229 216.989 291.358C217.537 291.14 218.091 290.935 218.642 290.723C210.67 286.963 209.303 276.982 211.43 269.127Z" fill="#306348"/>
<path d="M214.488 368.165C214.233 366.617 215.41 365.351 216.383 364.335C217.04 363.647 217.702 362.964 218.364 362.283C220.158 360.436 221.933 358.536 223.765 356.726C224.31 357.431 225.231 357.439 226.196 357.214C229.139 356.527 232.563 355.044 233.232 352.699C234.169 355.169 235.215 357.598 236.215 360.041C236.404 360.501 236.592 360.963 236.78 361.423C236.78 361.423 230.645 363.995 230.28 364.15C227.1 365.483 223.92 366.817 220.74 368.149C219.325 368.743 217.908 369.336 216.493 369.931C215.536 370.333 215.239 370.181 214.781 369.147C214.643 368.839 214.544 368.507 214.488 368.165Z" fill="#B6D352"/>
<path d="M266.598 302.284C247.992 292.378 225.919 282.155 209.856 274.118C202.86 278.139 196.843 286.166 199.841 294.536C207.943 298.247 215.815 302.664 223.764 306.673C229.984 309.81 236.154 313.496 242.585 316.154C247.868 318.336 254.088 319.058 259.235 316.104C260.002 315.664 260.705 315.149 261.353 314.573C263.405 312.752 264.876 310.373 266.114 307.939C267.15 305.9 269.281 303.713 266.598 302.284Z" fill="#254A37"/>
<path d="M168.822 347.372L178.923 348.651L184.453 337.412L175.326 332.81L168.822 347.372Z" fill="#FBC09A"/>
<path d="M157.097 350.087C157.564 348.591 159.18 348.002 160.502 347.543C161.397 347.232 162.292 346.927 163.188 346.624C165.615 345.802 168.046 344.925 170.491 344.154C170.66 345.032 171.478 345.462 172.439 345.704C175.37 346.443 179.085 346.696 180.733 344.913C180.462 347.544 180.305 350.188 180.1 352.826C180.062 353.323 180.024 353.82 179.985 354.317C179.985 354.317 173.365 353.792 172.97 353.761C169.539 353.489 166.107 353.216 162.677 352.945C161.148 352.824 159.621 352.701 158.093 352.581C157.06 352.5 156.864 352.229 156.918 351.096C156.935 350.758 156.995 350.417 157.097 350.087Z" fill="#40223B"/>
<path d="M184.678 341.4C184.343 342.022 173.163 335.606 172.18 334.866C173.428 332.04 183.549 303.837 188.222 292.872C191.349 285.534 193.964 278.149 199.938 272.58C206.54 266.427 213.639 268.588 221.042 272.314C237.2 280.445 248.522 290.386 267.644 300.568C271.19 302.455 265.171 309.839 263.562 311.618C259.71 315.878 253.566 317.523 248.171 315.517C245.011 314.342 242.25 312.301 239.507 310.324C231.428 304.502 223.183 298.736 214.32 294.249C212.907 293.582 211.577 292.614 210.054 292.205C207.849 291.613 207.21 292.887 206.338 294.826C199.328 310.424 192.793 326.355 184.678 341.4Z" fill="#478F6A"/>
<path d="M236.735 262.994C234.874 264.754 233.307 265.747 232.075 265.948C231.561 266.032 231.035 266.012 230.529 265.89H230.528C229.673 265.66 228.882 265.233 228.218 264.642C227.415 263.939 226.703 263.136 226.096 262.253C224.874 260.527 223.66 258.198 222.489 255.33C220.408 250.238 218.954 244.688 218.274 241.832C216.615 240.965 213.717 239.317 212.957 238.027C212.532 237.304 212.246 235.42 212.192 232.985C212.142 230.752 212.302 228.7 212.593 227.88C212.671 227.662 212.755 227.534 212.847 227.501C213.007 227.438 216.783 225.976 217.914 226.245C217.958 226.255 218.002 226.27 218.044 226.288C218.554 226.186 218.946 226.108 219.136 226.071L219.158 226.067L219.196 226.06L219.258 231.616C219.375 231.765 219.459 231.937 219.505 232.121C219.535 232.288 219.454 232.395 219.268 232.442L219.286 234.069L219.287 234.074C219.287 234.077 219.289 234.08 219.288 234.083C219.296 234.125 219.296 234.167 219.287 234.209L219.295 234.913L222.063 227.257H222.064C222.23 227.498 226.117 233.178 226.757 234.879C227.143 235.904 226.327 238.349 225.573 240.218L232.087 252.028L232.769 250.991C236.07 245.972 243.06 245.218 247.331 249.421C247.23 249.582 244.806 253.41 241.727 257.354C240.201 259.355 238.533 261.24 236.735 262.994Z" fill="#FFAA8A"/>
<path d="M215.342 235.448L215.292 237.045C215.28 237.458 215.556 237.823 215.953 237.918L222.422 239.464L223.133 221.14L216.849 219.638C216.398 219.531 215.963 219.866 215.945 220.335L215.704 226.545C215.701 226.59 219.693 225.343 217.491 227.41C217.015 227.856 216.531 228.296 216.048 228.737L217.096 229.534C217.707 229.997 218.375 230.561 218.889 231.158C219.055 231.353 219.569 231.893 219.52 232.174C219.406 232.835 218.366 232.32 218.039 232.171C217.443 231.903 216.723 231.753 216.129 231.473L217.816 232.271C218.314 232.763 218.882 233.22 219.201 233.857C219.651 234.755 218.212 234.204 217.892 234.094C217.384 233.922 216.889 233.713 216.386 233.529L217.1 234.178L217.563 234.649C217.563 234.649 217.996 235.026 218.001 235.031C218.128 235.141 218.264 235.696 218.193 235.859C217.936 236.453 216.459 235.863 216.061 235.714L215.342 235.448Z" fill="#291010"/>
<path d="M222.424 239.464L222.733 239.539C223.187 239.647 223.624 239.31 223.643 238.839L224.292 222.113C224.308 221.712 224.04 221.356 223.655 221.264L223.135 221.14L222.424 239.464Z" fill="#080202"/>
<path d="M221.963 221.929C221.688 221.919 221.449 222.343 221.428 222.879C221.408 223.414 221.614 223.858 221.889 223.868C222.164 223.878 222.403 223.453 222.423 222.918C222.443 222.383 222.238 221.939 221.963 221.929Z" fill="white"/>
<path d="M234.266 247.106C234.113 247.207 233.962 247.311 233.813 247.421C232.98 248.033 232.127 248.929 231.044 248.198C230.718 247.978 230.511 247.622 230.316 247.277C229.122 245.178 227.929 243.081 226.737 240.982C223.583 241.819 220.429 242.657 217.275 243.494C217.593 248.286 219.265 252.874 221.125 257.292C222.138 259.698 223.234 262.114 224.92 264.095C226.606 266.076 228.977 267.599 231.559 267.699C235.222 267.839 238.355 265.221 241.093 262.753C242.281 261.684 243.469 260.612 244.657 259.543C245.92 258.404 247.201 257.245 248.091 255.789C249.375 253.689 249.739 251.131 249.65 248.663C249.58 246.746 249.157 244.83 248.282 243.119C247.717 242.016 246.883 240.121 245.629 239.652C244.309 239.157 242.924 240.447 241.913 241.231C240.08 242.653 238.474 244.366 236.558 245.681C235.798 246.2 235.011 246.613 234.266 247.106Z" fill="#478F6A"/>
<path d="M271.676 296.674C270.889 299.922 269.728 302.444 267.968 302.378C262.172 302.159 256.658 300.722 250.968 299.922C244.953 299.076 239.003 297.668 233.301 295.539C232.295 295.164 231.271 294.75 230.48 294.017C228.127 291.836 228.672 286.843 228.981 283.969C229.322 280.805 229.956 277.695 230.39 274.546C231.312 267.87 232.799 261.28 234.742 254.834C236.123 250.251 237.943 245.599 240.899 241.809C244.851 236.739 247.948 235.619 253.975 235.842C257.209 235.962 259.155 236.581 261.587 239.011C273.576 250.995 275.254 267.475 273.405 283.663C273.17 285.733 272.818 291.965 271.676 296.674Z" fill="#193024"/>
<path d="M259.012 229.145L257.574 236.609C257.574 236.609 252.849 241.331 248.37 237.165C248.194 237 248.129 236.747 248.189 236.513L250.215 228.815L259.012 229.145Z" fill="#F5A88A"/>
<path d="M250.215 228.815L259.012 229.145L258.666 230.942L248.844 234.026L250.215 228.815Z" fill="#EE5E59"/>
<path d="M251.663 231.863C249.859 231.547 248.126 230.896 246.624 229.842C244.729 228.513 243.313 226.478 242.78 224.165C242.194 221.614 242.847 219.338 243.623 216.924C244.381 214.564 245.863 211.85 248.294 210.922C252.435 209.341 256.621 209.574 260.316 212.162C261.765 213.177 262.997 214.566 263.621 216.235C264.9 219.646 263.451 223.458 262.037 226.581C261.164 228.508 260.105 230.371 258.158 231.338C256.138 232.343 253.83 232.244 251.663 231.863Z" fill="#F5A88A"/>
<path d="M248.135 203.587C251.75 204.959 255.596 203.271 259.339 204.544C262.87 205.746 265.65 208.664 267.096 212.1C269.197 217.096 267.396 221.672 263.566 225.107C263.012 225.602 262.397 226.077 261.67 226.215C259.612 226.605 258.279 223.594 257.628 222.114C257.226 221.198 256.841 220.238 256.569 219.271C256.565 219.255 256.56 219.239 256.556 219.223C256.383 218.598 255.758 215.144 256.483 214.795C256.137 214.961 255.802 215.137 255.446 215.282C255.335 215.125 255.19 214.847 255.13 214.672C251.35 216.212 247.834 217.307 243.768 215.83C240.097 214.497 237.098 211.389 235.868 207.641C235.47 206.428 235.342 204.875 236.33 204.081C237.345 203.265 238.827 203.788 240.004 204.339C239.389 203.01 240.362 201.211 241.8 201.022C242.768 200.894 243.697 201.386 244.559 201.851C245.67 202.449 246.881 203.112 248.135 203.587Z" fill="#40223B"/>
<path d="M265.385 227.054C263.572 229.828 258.331 229.632 259.993 224.816C261.121 221.549 266.021 220.843 265.979 225.058C265.972 225.832 265.746 226.502 265.385 227.054Z" fill="#F5A88A"/>
<path d="M247.303 223.894C247.303 223.894 246.719 223.815 246.718 223.815C246.122 223.75 245.647 223.218 245.643 222.606C245.639 222.12 245.924 221.73 246.199 221.355C246.332 221.172 246.458 220.998 246.545 220.824C246.589 220.733 246.697 220.698 246.786 220.743C246.876 220.787 246.912 220.897 246.867 220.987C246.766 221.19 246.625 221.384 246.488 221.572C246.237 221.915 245.999 222.24 246.001 222.605C246.004 223.035 246.339 223.41 246.763 223.457L247.35 223.536L247.303 223.894Z" fill="#EE5E59"/>
<path d="M251.285 219.34C250.799 219.201 250.295 219.488 250.159 219.979C250.159 219.98 250.159 219.98 250.159 219.981C250.022 220.473 250.304 220.985 250.79 221.123C251.276 221.261 251.782 220.975 251.918 220.483C252.053 219.99 251.771 219.479 251.285 219.34Z" fill="#40223B"/>
<path d="M244.637 218.724C244.162 218.588 243.669 218.868 243.535 219.347C243.535 219.348 243.535 219.348 243.535 219.35C243.401 219.83 243.678 220.329 244.153 220.465C244.628 220.601 245.121 220.32 245.255 219.839C245.389 219.359 245.112 218.859 244.637 218.724Z" fill="#40223B"/>
<path d="M247.139 226.37C246.801 226.37 246.46 226.317 246.131 226.206C246.019 226.168 245.958 226.046 245.995 225.933C246.033 225.82 246.153 225.758 246.265 225.796C247.189 226.107 248.222 225.901 248.96 225.259C249.05 225.182 249.185 225.192 249.262 225.282C249.338 225.373 249.328 225.51 249.239 225.587C248.651 226.099 247.899 226.37 247.139 226.37Z" fill="#582E4D"/>
<path d="M261.706 272.676C256.056 278.823 248.627 283.729 240.673 286.175C232.009 288.839 221.06 286.94 212.55 284.291C211.005 283.81 208.083 282.947 207.135 281.488C206.317 280.227 208.119 277.577 208.694 276.202L210.968 270.769C211.19 270.237 211.722 269.909 212.292 269.948C215.572 270.167 226.647 269.935 227.904 269.634C233.26 268.356 237.542 265.663 241.397 261.701C245.515 257.468 249.97 253.595 254.355 249.635C256.588 247.619 258.74 246.538 261.757 247.183C264.612 247.794 267.342 249.337 269.01 251.76C271.09 254.782 269.521 258.75 268.468 261.899C267.244 265.564 264.843 269.265 261.706 272.676Z" fill="#D04952"/>
<path d="M231.764 287.767C230.895 287.767 230.018 287.726 229.136 287.637C228.992 287.622 228.886 287.492 228.9 287.345C228.915 287.199 229.043 287.093 229.188 287.107C239.004 288.098 248.348 282.977 248.442 282.925C252.783 280.582 256.63 277.72 259.879 274.416C262.479 271.774 264.703 268.844 266.493 265.71C269.54 260.369 270.273 256.228 270.281 256.187C270.306 256.042 270.441 255.945 270.586 255.97C270.729 255.995 270.825 256.132 270.8 256.277C270.793 256.319 270.049 260.535 266.962 265.953C265.151 269.132 262.897 272.101 260.265 274.779C256.976 278.126 253.083 281.024 248.694 283.393C248.609 283.44 240.719 287.767 231.764 287.767Z" fill="white"/>
<path d="M207.267 280.011C207.235 280.011 207.202 280.006 207.17 279.992C207.035 279.937 206.97 279.782 207.024 279.646L210.906 269.808C210.948 269.703 211.046 269.636 211.16 269.64L212.302 269.682C214.287 269.796 221.657 269.688 224.805 269.642C228.177 269.593 231.44 268.38 231.592 268.322C231.733 268.261 234.304 267.121 236.668 265.663C238.288 264.664 243.175 259.997 247.487 255.881C249.609 253.855 251.614 251.941 252.954 250.729C257.001 247.074 259.262 246.94 259.356 246.935C259.504 246.929 259.623 247.044 259.63 247.19C259.636 247.336 259.524 247.461 259.38 247.466C258.635 247.506 256.408 248.322 253.305 251.125C251.969 252.332 249.967 254.243 247.848 256.267C243.517 260.401 238.61 265.087 236.942 266.116C234.49 267.628 231.821 268.801 231.795 268.812C231.792 268.813 231.787 268.816 231.784 268.817C231.645 268.87 228.344 270.121 224.813 270.173C221.661 270.219 214.277 270.327 212.278 270.213L211.326 270.178L207.513 279.842C207.47 279.947 207.372 280.011 207.267 280.011Z" fill="white"/>
<path d="M261.234 225.185C261.19 225.185 261.146 225.172 261.109 225.144C261.014 225.074 260.993 224.939 261.061 224.842C261.761 223.871 262.513 223.361 263.3 223.327C264.311 223.281 264.981 224.047 265.008 224.079C265.085 224.169 265.075 224.305 264.986 224.384C264.897 224.462 264.763 224.452 264.685 224.363C264.679 224.357 264.115 223.72 263.312 223.758C262.664 223.789 262.021 224.239 261.404 225.095C261.365 225.155 261.3 225.185 261.234 225.185Z" fill="#582E4D"/>
<path d="M249.916 236.999L252.761 234.462L259.127 235.227L260.289 237.817L257.052 239.355C257.052 239.354 248.952 241.57 249.916 236.999Z" fill="#0093FB"/>
<path d="M249.916 236.999L248.844 234.026L247.3 233.688L245.149 237.698L249.993 238.541L249.916 236.999Z" fill="#0093FB"/>
<path d="M253.056 235.44L254.925 238.488L250.835 237.401L253.056 235.44Z" fill="#0076C9"/>
<path d="M249.316 237.225L247.719 234.795L246.603 236.994L249.316 237.225Z" fill="#0076C9"/>
<path d="M249.705 237.976C248.686 241.507 247.62 245.023 246.626 248.559C246.109 250.321 245.607 252.087 245.12 253.858C244.64 255.631 244.159 257.403 243.749 259.19C243.736 259.253 243.674 259.292 243.612 259.279C243.551 259.265 243.511 259.203 243.524 259.142C243.89 257.335 244.348 255.553 244.832 253.779C245.312 252.004 245.809 250.234 246.32 248.469C247.377 244.95 248.432 241.428 249.588 237.94C249.598 237.908 249.633 237.89 249.666 237.901C249.697 237.91 249.714 237.944 249.705 237.976Z" fill="#0093FB"/>
<path d="M281.542 359.008H220.634C219.855 359.008 219.222 358.368 219.222 357.578C219.222 356.788 219.854 356.15 220.634 356.15H281.54C281.795 356.15 281.932 355.993 281.99 355.9C282.049 355.806 282.131 355.615 282.023 355.382L265.85 320.351C265.52 319.636 265.825 318.785 266.531 318.452C267.237 318.117 268.078 318.425 268.408 319.141L284.581 354.173C285.069 355.231 284.992 356.45 284.372 357.435C283.753 358.42 282.695 359.008 281.542 359.008Z" fill="#DEDBDB"/>
<path d="M267.13 321.175H224.489C221.574 321.175 218.953 319.534 217.649 316.894L206.512 287.037C205.801 285.6 205.877 283.923 206.711 282.555C207.547 281.187 208.994 280.371 210.582 280.371H274.586L277.378 265.727C277.525 264.951 278.266 264.447 279.031 264.594C279.797 264.744 280.298 265.494 280.15 266.268L277.143 282.039C277.14 282.061 277.135 282.083 277.131 282.104L268.515 320.016C268.388 320.689 267.807 321.175 267.13 321.175ZM210.582 283.229C209.97 283.229 209.434 283.532 209.113 284.059C208.791 284.586 208.763 285.207 209.037 285.761L220.174 315.618C220.996 317.284 222.65 318.318 224.489 318.318H265.965L274.043 283.23H210.582V283.229Z" fill="#DEDBDB"/>
<path d="M253.471 320.743C253.465 320.743 253.46 320.742 253.454 320.742C252.871 320.694 252.438 320.177 252.485 319.588L256.103 281.785C256.151 281.2 256.652 280.764 257.227 280.801C257.232 280.801 257.238 280.803 257.244 280.803C257.827 280.851 258.261 281.368 258.212 281.957L254.594 319.76C254.547 320.345 254.046 320.782 253.471 320.743Z" fill="#DEDBDB"/>
<path d="M227.644 318.616L213.614 281.787H211.349L225.622 319.252C225.752 319.676 226.118 319.959 226.53 320C226.666 320.014 226.808 320 226.947 319.957C227.505 319.783 227.818 319.182 227.644 318.616Z" fill="#DEDBDB"/>
<path d="M232.746 321.152C232.276 321.121 231.866 320.773 231.775 320.281L222.76 281.662C222.652 281.08 223.03 280.521 223.604 280.411C224.179 280.299 224.732 280.683 224.84 281.265L233.855 319.884C233.963 320.466 233.585 321.025 233.011 321.135C232.922 321.153 232.833 321.158 232.746 321.152Z" fill="#DEDBDB"/>
<path d="M239.885 320.53C239.383 320.49 238.965 320.097 238.914 319.583L234.49 282.156C234.432 281.58 234.859 281.069 235.439 281.014C236.021 280.962 236.539 281.383 236.595 281.959L241.02 319.387C241.077 319.962 240.651 320.474 240.07 320.529C240.009 320.536 239.946 320.536 239.885 320.53Z" fill="#DEDBDB"/>
<path d="M245.986 320.818C245.41 320.818 244.938 320.351 244.928 319.766L244.085 281.82C244.074 281.229 244.539 280.739 245.124 280.728C245.131 280.728 245.138 280.728 245.144 280.728C245.72 280.728 246.191 281.195 246.202 281.78L247.045 319.726C247.056 320.317 246.591 320.807 246.006 320.818C245.999 320.818 245.992 320.818 245.986 320.818Z" fill="#DEDBDB"/>
<path d="M260.405 320.581C259.827 320.497 259.425 319.955 259.507 319.37L265.793 281.874C265.875 281.288 266.411 280.88 266.989 280.964H266.99C267.568 281.048 267.97 281.589 267.888 282.175L261.603 319.671C261.52 320.257 260.985 320.665 260.406 320.581C260.406 320.581 260.406 320.581 260.405 320.581Z" fill="#DEDBDB"/>
<path d="M229.858 372.398C232.998 370.893 234.338 367.096 232.851 363.917C231.364 360.739 227.614 359.382 224.474 360.887C221.335 362.393 219.995 366.19 221.481 369.368C222.968 372.547 226.719 373.904 229.858 372.398Z" fill="#2B1E19"/>
<path d="M272.4 372.517C275.61 371.171 277.134 367.446 275.804 364.197C274.475 360.947 270.795 359.404 267.586 360.75C264.376 362.096 262.852 365.821 264.182 369.071C265.511 372.32 269.191 373.863 272.4 372.517Z" fill="#2B1E19"/>
<path d="M294.513 264.593H279.169C278.033 264.593 277.113 265.525 277.113 266.675V267.405H294.513C295.28 267.405 295.901 266.776 295.901 266C295.902 265.223 295.28 264.593 294.513 264.593Z" fill="#2B1E19"/>
<path d="M168.822 347.3L178.923 348.579L184.453 337.34L175.326 332.738L168.822 347.3Z" fill="#FBC09A"/>
<path d="M157.097 350.015C157.564 348.519 159.18 347.93 160.502 347.471C161.397 347.16 162.292 346.855 163.188 346.552C165.615 345.73 168.046 344.853 170.491 344.082C170.66 344.96 171.478 345.39 172.439 345.632C175.37 346.371 179.085 346.624 180.733 344.841C180.462 347.472 180.305 350.116 180.1 352.754C180.062 353.251 180.024 353.748 179.985 354.245C179.985 354.245 173.365 353.72 172.97 353.689C169.539 353.417 166.107 353.144 162.677 352.873C161.148 352.752 159.621 352.629 158.093 352.51C157.06 352.428 156.864 352.157 156.918 351.024C156.935 350.687 156.995 350.345 157.097 350.015Z" fill="#B6D352"/>
<path d="M184.678 341.329C184.343 341.95 173.163 335.534 172.18 334.794C173.428 331.968 183.549 303.765 188.222 292.8C191.349 285.463 193.964 278.077 199.938 272.508C202.488 270.132 205.848 268.776 209.314 268.744C213.477 268.706 218.616 270.133 221.728 273.057C227.327 278.316 235.427 274.415 241.025 279.673C237.224 280.664 232.091 286.644 228.306 285.59C224.36 284.491 215.268 283.157 212.973 285.61C211.392 287.3 209.854 289.219 208.79 291.237C208.141 292.467 207.608 293.765 206.823 294.91C203.272 300.09 201.176 306.431 198.635 312.171C194.273 322.027 189.794 331.844 184.678 341.329Z" fill="#39805B"/>
<path d="M201.92 278.136C201.076 277.852 200.241 277.551 199.397 277.217C198.587 276.898 197.85 276.03 198.487 275.133C198.028 274.704 197.878 274.284 198.016 273.618C198.148 272.981 198.538 272.483 199.09 272.167C198.82 272.041 198.659 271.638 198.625 271.339C198.523 270.42 199.005 269.552 199.99 269.43C199.822 269.45 199.889 268.651 199.913 268.569C199.988 268.303 200.173 268.045 200.332 267.822C200.689 267.321 201.235 266.992 201.863 267.005C202.286 267.013 202.692 267.166 203.087 267.317C205.46 268.227 208.046 268.955 210.319 270.091C211.27 270.566 211.19 270.37 211.33 271.33C211.412 271.894 211.205 272.689 211.137 273.254C210.878 275.396 210.526 277.141 210.609 279.32C210.613 279.397 210.613 279.483 210.561 279.54C210.511 279.595 210.431 279.604 210.359 279.609C209.658 279.665 208.956 279.722 208.253 279.695C206.683 279.636 205.172 279.162 203.68 278.702C203.084 278.519 202.5 278.332 201.92 278.136Z" fill="#FFAA8A"/>
<path d="M201.959 270.267C201.94 270.267 201.92 270.263 201.901 270.258L199.933 269.607C199.836 269.575 199.784 269.47 199.816 269.372C199.847 269.273 199.951 269.221 200.048 269.253L202.016 269.904C202.113 269.936 202.165 270.041 202.134 270.139C202.108 270.217 202.035 270.267 201.959 270.267Z" fill="#582E4D"/>
<path d="M200.645 272.773C200.629 272.773 200.613 272.771 200.597 272.766L199.042 272.346C198.944 272.32 198.885 272.217 198.911 272.118C198.937 272.018 199.038 271.959 199.137 271.985L200.692 272.405C200.79 272.432 200.849 272.535 200.823 272.634C200.802 272.718 200.727 272.773 200.645 272.773Z" fill="#582E4D"/>
<path d="M199.726 275.644C199.711 275.644 199.695 275.641 199.679 275.638L198.441 275.315C198.343 275.289 198.283 275.187 198.309 275.088C198.335 274.988 198.434 274.929 198.534 274.954L199.772 275.277C199.87 275.303 199.93 275.405 199.904 275.504C199.882 275.588 199.807 275.644 199.726 275.644Z" fill="#582E4D"/>
<path d="M261.706 272.605C256.056 278.752 248.627 283.658 240.673 286.104C232.009 288.768 221.06 286.869 212.55 284.22C211.005 283.739 208.083 282.876 207.135 281.417C206.317 280.156 208.119 277.506 208.694 276.131L210.968 270.698C211.19 270.166 211.722 269.839 212.292 269.877C215.572 270.097 226.647 269.864 227.904 269.563C233.26 268.286 237.542 265.592 241.397 261.63C245.515 257.397 249.97 253.524 254.355 249.564C256.588 247.549 258.74 246.467 261.757 247.112C264.612 247.723 267.342 249.266 269.01 251.689C271.09 254.711 269.521 258.679 268.468 261.829C267.244 265.492 264.843 269.195 261.706 272.605Z" fill="#478F6A"/>
<path d="M207.267 279.939C207.235 279.939 207.202 279.934 207.17 279.92C207.035 279.865 206.97 279.711 207.024 279.574L210.906 269.736C210.948 269.632 211.046 269.563 211.16 269.568L212.302 269.61C214.287 269.724 221.657 269.616 224.805 269.57C228.177 269.521 231.44 268.309 231.592 268.25C231.733 268.189 234.304 267.049 236.668 265.591C238.288 264.592 243.175 259.925 247.487 255.809C249.609 253.783 251.614 251.869 252.955 250.657C257.001 247.002 259.262 246.868 259.356 246.863C259.504 246.855 259.623 246.972 259.63 247.118C259.636 247.264 259.524 247.389 259.38 247.394C258.635 247.434 256.408 248.25 253.305 251.053C251.969 252.26 249.967 254.171 247.848 256.195C243.517 260.329 238.61 265.015 236.942 266.044C234.49 267.556 231.821 268.729 231.795 268.74C231.792 268.741 231.787 268.744 231.784 268.745C231.645 268.798 228.344 270.049 224.813 270.101C221.661 270.147 214.277 270.255 212.278 270.141L211.326 270.106L207.513 279.769C207.47 279.877 207.372 279.939 207.267 279.939Z" fill="white"/>
<defs>
<linearGradient id="paint0_linear_590_417" x1="161.363" y1="0.000567697" x2="161.363" y2="373.01" gradientUnits="userSpaceOnUse">
<stop stop-color="#FAFFEC"/>
<stop offset="0.0298" stop-color="white"/>
<stop offset="1" stop-color="#FFF7EE"/>
</linearGradient>
<linearGradient id="paint1_linear_590_417" x1="161.372" y1="0.000567697" x2="161.372" y2="373.01" gradientUnits="userSpaceOnUse">
<stop stop-color="#F4F7E0"/>
<stop offset="0.9747" stop-color="#EDE7DE"/>
</linearGradient>
<linearGradient id="paint2_linear_590_417" x1="161.365" y1="0.00312233" x2="161.365" y2="373.012" gradientUnits="userSpaceOnUse">
<stop stop-color="#FAFFEC"/>
<stop offset="0.0298" stop-color="white"/>
<stop offset="1" stop-color="#FFF7EE"/>
</linearGradient>
<linearGradient id="paint3_linear_590_417" x1="161.367" y1="0.00312233" x2="161.367" y2="373.012" gradientUnits="userSpaceOnUse">
<stop stop-color="#F4F7E0"/>
<stop offset="0.9747" stop-color="#EDE7DE"/>
</linearGradient>
</defs>
</svg>
