<svg width="8" height="8" viewBox="0 0 8 8" fill="none" xmlns="http://www.w3.org/2000/svg">
<path d="M7.82248 4.07695C7.82248 4.8239 7.60098 5.55408 7.186 6.17515C6.77101 6.79621 6.18118 7.28028 5.49109 7.56612C4.80099 7.85197 4.04163 7.92676 3.30903 7.78104C2.57643 7.63531 1.9035 7.27562 1.37532 6.74745C0.847149 6.21927 0.487457 5.54634 0.341734 4.81374C0.196011 4.08114 0.270801 3.32178 0.556647 2.63168C0.842494 1.94159 1.32656 1.35176 1.94762 0.936774C2.56869 0.52179 3.29887 0.300293 4.04582 0.300293C5.0466 0.303061 6.0056 0.701847 6.71326 1.40951C7.42092 2.11717 7.81971 3.07617 7.82248 4.07695Z" fill="white"/>
</svg>
