<svg width="32" height="21" viewBox="0 0 32 21" fill="none" xmlns="http://www.w3.org/2000/svg">
<path d="M31.5445 18.8423V13.0325C31.5445 12.8374 31.5445 12.6465 31.5215 12.4597C31.418 10.9163 30.8885 9.43176 29.9919 8.17115C29.3299 7.22798 28.4851 6.42743 27.5077 5.81703C26.9494 5.47328 26.3521 5.19718 25.7285 4.99456C25.6928 4.98197 25.6572 4.96728 25.6194 4.95679C25.6026 4.94964 25.585 4.9447 25.5669 4.94211L25.462 4.90853C25.3718 4.87706 25.2816 4.85188 25.1914 4.82881C25.0995 4.80285 25.0064 4.78183 24.9123 4.76586L24.6794 4.71341C24.5703 4.69033 24.4696 4.67144 24.35 4.65676C24.1675 4.62738 23.9765 4.6043 23.7856 4.58962C23.5947 4.57493 23.4038 4.56444 23.2086 4.56024H15.8924C15.819 4.56024 15.7476 4.56024 15.6826 4.56024C15.4713 4.54938 15.261 4.52415 15.0532 4.48471C14.9321 4.46248 14.8123 4.43377 14.6944 4.39869C13.8123 4.14798 13.0286 3.63237 12.4491 2.92162C11.8697 2.21087 11.5226 1.33929 11.4548 0.424805H0.817261V6.23876V6.79476C0.817261 6.98989 0.817261 7.18082 0.84034 7.37175C0.900043 8.29021 1.11279 9.19224 1.46978 10.0406C2.09611 11.5365 3.13715 12.8222 4.47012 13.7459C5.88162 14.7429 7.56774 15.2773 9.29585 15.2755H16.3309C16.478 15.2751 16.6251 15.2821 16.7715 15.2964C16.9184 15.3132 17.0653 15.3342 17.2058 15.3636C17.2814 15.3804 17.3527 15.395 17.4157 15.416C17.5025 15.4375 17.588 15.4641 17.6716 15.4958C17.7252 15.5072 17.7773 15.5248 17.8269 15.5482C17.8951 15.5693 17.9617 15.5953 18.0262 15.6258C18.0983 15.6507 18.1684 15.6808 18.236 15.7161C18.367 15.7764 18.4932 15.8466 18.6137 15.9259C18.6783 15.958 18.7395 15.9967 18.7962 16.0413C18.8576 16.0766 18.9153 16.1181 18.9683 16.1651C19.5293 16.575 19.9854 17.1119 20.2994 17.7318C20.6134 18.3517 20.7763 19.037 20.7748 19.7319V20.1138H31.5508V18.8549L31.5445 18.8423Z" fill="#538A4B"/>
</svg>
