<svg width="32" height="22" viewBox="0 0 32 22" fill="none" xmlns="http://www.w3.org/2000/svg">
<path opacity="0.46" d="M31.4941 8.45971C31.393 6.91641 30.8649 5.43161 29.9688 4.17111C29.3058 3.22729 28.4595 2.42667 27.4804 1.81699C26.1893 1.01756 24.7059 0.582549 23.1876 0.558105C23.1393 0.558105 23.0911 0.558105 23.0428 0.558105H7.15567C5.96751 0.558606 4.79281 0.809632 3.70823 1.2948C2.62364 1.77997 1.65355 2.48839 0.861245 3.37381C0.920986 4.29227 1.13373 5.19429 1.49069 6.04265C2.11396 7.53737 3.15128 8.82292 4.48054 9.74797C5.89247 10.7441 7.5783 11.2784 9.30627 11.2775H1.89563L0.846558 16.5229V17.488C0.84988 18.6767 1.32356 19.8158 2.1641 20.6563C3.00463 21.4968 4.14369 21.9705 5.33238 21.9738H6.94586C8.13474 21.9705 9.27402 21.4969 10.1149 20.6564C10.9558 19.8159 11.4299 18.6769 11.4338 17.488V11.2754H16.3308C17.5095 11.2787 18.639 11.7484 19.4724 12.5819C20.3059 13.4153 20.7756 14.5448 20.7789 15.7235V15.7801C20.7757 15.8339 20.7757 15.8879 20.7789 15.9417C20.7757 15.9948 20.7757 16.048 20.7789 16.1011C20.8228 16.7066 21.0939 17.2731 21.5379 17.6871C21.9818 18.101 22.5659 18.332 23.1729 18.3336H29.1421C29.7146 18.3311 30.2675 18.125 30.7019 17.7521C31.1363 17.3792 31.4238 16.8639 31.513 16.2984V9.0325C31.5214 8.83737 31.5151 8.64644 31.4941 8.45971Z" fill="#F8F8F9"/>
</svg>
