<svg width="12" height="13" viewBox="0 0 12 13" fill="none" xmlns="http://www.w3.org/2000/svg">
<path d="M11.5362 5.02429V8.38132C11.5362 8.46105 11.5362 8.53449 11.5362 8.61422C11.477 9.74241 10.9963 10.8072 10.1892 11.5978H3.18977C4.70753 11.6217 6.1904 12.0567 7.48047 12.8567C7.33759 12.8718 7.19402 12.8795 7.05035 12.8797H5.42848C4.25802 12.8788 3.1347 12.4184 2.30015 11.5978C1.87345 11.1786 1.53442 10.6787 1.3028 10.1272C1.07119 9.57573 0.951614 8.98367 0.95105 8.38552V5.02849C0.95105 4.91519 0.951051 4.81868 0.965738 4.69908C1.04856 3.56976 1.55386 2.5131 2.38094 1.73968C3.20802 0.96626 4.29615 0.532872 5.42848 0.525879H7.05035C8.18347 0.530685 9.27311 0.96255 10.1019 1.7353C10.9306 2.50805 11.4375 3.56487 11.5215 4.69489C11.532 4.80399 11.5362 4.91099 11.5362 5.02429Z" fill="#F8F8F9"/>
</svg>
